<?xml version="1.0" encoding="iso-8859-1"?>
<!-- Generator: Adobe Illustrator 19.1.0, SVG Export Plug-In . SVG Version: 6.00 Build 0)  -->
<svg version="1.1" id="Capa_1" xmlns="http://www.w3.org/2000/svg" xmlns:xlink="http://www.w3.org/1999/xlink" x="0px" y="0px"
	 viewBox="0 0 332.589 332.589" style="enable-background:new 0 0 332.589 332.589;" xml:space="preserve">
<g>
	<path d="M294.034,45.785H38.561C17.295,45.785,0,63.079,0,84.346v7.082v149.732v7.082c0,21.266,17.295,38.561,38.561,38.561
		h255.467c21.266,0,38.561-17.295,38.561-38.561v-7.082V91.415v-7.076C332.595,63.079,315.294,45.785,294.034,45.785z
		 M294.034,58.638c1.767,0,3.49,0.18,5.161,0.527c0.54,0.109,1.028,0.334,1.555,0.476c1.105,0.302,2.224,0.578,3.265,1.015
		c0.566,0.238,1.054,0.591,1.607,0.868c0.932,0.476,1.896,0.919,2.764,1.497c0.501,0.347,0.932,0.784,1.408,1.17
		c0.816,0.636,1.658,1.234,2.397,1.973c0.424,0.418,0.752,0.932,1.144,1.388c0.688,0.784,1.407,1.542,1.999,2.41
		c0.353,0.514,0.591,1.105,0.906,1.645c0.514,0.893,1.067,1.755,1.472,2.712c0.263,0.611,0.392,1.279,0.604,1.922
		c0.328,0.951,0.688,1.889,0.906,2.886c0.148,0.713,0.148,1.478,0.238,2.217c0.116,0.958,0.276,1.896,0.289,2.886l-121.917,74.526
		h-0.013l-31.53,19.287l-31.53-19.287h-0.006L12.867,84.224c0.006-0.938,0.18-1.838,0.276-2.757
		c0.096-0.784,0.096-1.587,0.251-2.346c0.18-0.893,0.521-1.716,0.797-2.564c0.238-0.746,0.405-1.53,0.707-2.249
		c0.341-0.803,0.823-1.517,1.234-2.275c0.386-0.688,0.694-1.427,1.138-2.076c0.482-0.707,1.086-1.324,1.639-1.979
		c0.501-0.611,0.945-1.26,1.504-1.819c0.598-0.598,1.298-1.073,1.954-1.613c0.623-0.501,1.189-1.073,1.851-1.517
		c0.707-0.482,1.504-0.823,2.269-1.228c0.694-0.379,1.356-0.823,2.095-1.138c0.945-0.405,1.973-0.643,2.969-0.925
		c0.623-0.18,1.208-0.443,1.845-0.572c1.671-0.347,3.393-0.527,5.167-0.527C38.561,58.638,294.034,58.638,294.034,58.638z
		 M12.854,99.288l109.584,67L12.854,233.294V99.288z M38.561,273.944c-1.767,0-3.496-0.18-5.167-0.521
		c-0.784-0.161-1.504-0.469-2.269-0.701c-0.855-0.257-1.735-0.45-2.545-0.79c-0.977-0.411-1.864-0.977-2.783-1.504
		c-0.514-0.302-1.08-0.527-1.575-0.861c-0.887-0.598-1.665-1.324-2.468-2.024c-0.437-0.379-0.932-0.694-1.337-1.105
		c-0.726-0.72-1.324-1.555-1.96-2.359c-0.386-0.482-0.835-0.919-1.189-1.433c-0.521-0.765-0.9-1.626-1.337-2.442
		c-0.341-0.649-0.752-1.24-1.041-1.922c-0.328-0.765-0.501-1.594-0.752-2.397c-0.257-0.803-0.578-1.581-0.752-2.416
		c-0.154-0.765-0.161-1.581-0.251-2.365c-0.09-0.925-0.263-1.812-0.27-2.751l121.891-74.532l31.53,19.281l31.53-19.281
		l121.911,74.532c-0.013,0.938-0.174,1.825-0.276,2.744c-0.09,0.784-0.103,1.6-0.251,2.365c-0.174,0.835-0.501,1.613-0.752,2.416
		c-0.251,0.803-0.424,1.632-0.752,2.397c-0.289,0.675-0.701,1.273-1.041,1.922c-0.437,0.816-0.816,1.677-1.343,2.442
		c-0.353,0.514-0.803,0.945-1.183,1.433c-0.643,0.803-1.228,1.639-1.96,2.359c-0.411,0.405-0.906,0.726-1.343,1.105
		c-0.803,0.701-1.581,1.433-2.461,2.024c-0.501,0.334-1.067,0.559-1.581,0.861c-0.919,0.527-1.793,1.093-2.776,1.504
		c-0.816,0.341-1.697,0.533-2.545,0.791c-0.765,0.231-1.478,0.54-2.275,0.701c-1.671,0.341-3.387,0.521-5.161,0.521H38.561V273.944z
		 M319.741,233.294l-109.597-67.006l109.597-67.006V233.294z"/>
</g>
<g>
</g>
<g>
</g>
<g>
</g>
<g>
</g>
<g>
</g>
<g>
</g>
<g>
</g>
<g>
</g>
<g>
</g>
<g>
</g>
<g>
</g>
<g>
</g>
<g>
</g>
<g>
</g>
<g>
</g>
</svg>
