<?xml version="1.0" encoding="iso-8859-1"?>
<!-- Generator: Adobe Illustrator 19.1.0, SVG Export Plug-In . SVG Version: 6.00 Build 0)  -->
<svg version="1.1" id="Capa_1" xmlns="http://www.w3.org/2000/svg" xmlns:xlink="http://www.w3.org/1999/xlink" x="0px" y="0px"
	 viewBox="0 0 330.802 330.802" style="enable-background:new 0 0 330.802 330.802;" xml:space="preserve">
<g>
	<path d="M222.433,106.991h-20.322v24.756h-73.42v-24.756h-20.322c0,0-42.34,86.081-92.135,123.986
		c-11.986,66.312,35.688,70.419,35.688,70.419h110.799h5.373H278.88c0,0,47.674-4.107,35.688-70.419
		C264.773,193.072,222.433,106.991,222.433,106.991z M295.988,278.214c-6.677,8.625-16.003,10.508-17.912,10.81H168.094h-5.373
		H52.726c-1.857-0.302-11.048-2.185-17.661-10.482c-7.095-8.901-9.454-23.008-6.89-40.984c41.235-33.542,75.965-95.066,87.668-117.2
		v11.382v12.378h12.854h73.42h12.854V131.74v-11.382c11.697,22.128,46.434,83.658,87.668,117.2
		C305.153,255.322,302.877,269.32,295.988,278.214z M330.783,95.66c-1.266-37.147-31.357-66.254-68.484-66.254H68.516
		c-36.851,0-66.756,28.651-68.459,65.599L0,103.417c0,10.63,8.651,19.281,19.281,19.281h60.387c10.63,0,19.281-8.651,19.281-19.467
		l-0.212-7.314c0.026-4.184,3.451-7.59,7.635-7.59h117.29c4.177,0,7.597,3.4,7.622,7.519l-0.129,7.571
		c0,10.63,8.702,19.281,19.383,19.281h60.881c10.694,0,19.383-8.651,19.383-19.287L330.783,95.66z M311.412,109.844h-60.881
		c-3.593,0-6.53-2.879-6.53-6.311l0.129-7.693c-0.077-11.228-9.248-20.36-20.476-20.36H106.371
		c-10.958,0-19.968,8.702-20.463,19.595l-0.064,0.238l0.251,8.111c0,3.548-2.873,6.427-6.427,6.427H19.281
		c-3.541,0-6.427-2.879-6.427-6.427l0.013-7.32c1.028-30.187,25.47-53.838,55.644-53.838h193.782
		c30.161,0,54.602,23.651,55.631,53.613l0.019,7.539C317.942,106.959,315.018,109.844,311.412,109.844z M165.395,158.168
		c-36.466,0-66.023,26.305-66.023,58.767s29.563,58.78,66.023,58.78c15.09,0,28.934-4.544,40.052-12.115l-11.286-22.404
		l26.395,8.021c6.864-9.261,10.881-20.347,10.881-32.282C231.443,184.479,201.88,158.168,165.395,158.168z M165.395,245.868
		c-17.95,0-32.488-12.956-32.488-28.934c0-15.964,14.538-28.908,32.488-28.908c17.963,0,32.513,12.944,32.513,28.908
		C197.902,232.918,183.358,245.868,165.395,245.868z"/>
</g>
<g>
</g>
<g>
</g>
<g>
</g>
<g>
</g>
<g>
</g>
<g>
</g>
<g>
</g>
<g>
</g>
<g>
</g>
<g>
</g>
<g>
</g>
<g>
</g>
<g>
</g>
<g>
</g>
<g>
</g>
</svg>
